<svg width="24" height="24" viewBox="0 0 24 24" fill="none" xmlns="http://www.w3.org/2000/svg">
<circle cx="12" cy="12" r="12" fill="#9873FF"/>
<path d="M8.28545 13.8396C8.28545 14.3234 8.1167 14.6918 7.7792 14.9449C7.44451 15.198 6.94248 15.3246 6.27311 15.3246C5.92998 15.3246 5.63748 15.3007 5.39561 15.2529C5.15373 15.2079 4.92732 15.1404 4.71639 15.0504V13.9873C4.95545 14.0998 5.22404 14.194 5.52217 14.2699C5.82311 14.3459 6.08748 14.3838 6.31529 14.3838C6.78217 14.3838 7.01561 14.2488 7.01561 13.9788C7.01561 13.8776 6.98467 13.796 6.92279 13.7341C6.86092 13.6695 6.75404 13.5977 6.60217 13.519C6.45029 13.4374 6.24779 13.3432 5.99467 13.2363C5.63186 13.0845 5.36467 12.9438 5.19311 12.8145C5.02436 12.6851 4.90061 12.5374 4.82186 12.3715C4.74592 12.2027 4.70795 11.996 4.70795 11.7513C4.70795 11.3323 4.86967 11.0088 5.19311 10.781C5.51936 10.5504 5.98061 10.4351 6.57686 10.4351C7.14498 10.4351 7.69764 10.5588 8.23482 10.8063L7.8467 11.7345C7.61045 11.6332 7.38967 11.5502 7.18436 11.4855C6.97904 11.4209 6.76951 11.3885 6.55576 11.3885C6.17607 11.3885 5.98623 11.4912 5.98623 11.6965C5.98623 11.8118 6.0467 11.9116 6.16764 11.996C6.29139 12.0804 6.55998 12.2055 6.97342 12.3715C7.34186 12.5205 7.61186 12.6598 7.78342 12.7891C7.95498 12.9185 8.08154 13.0676 8.16311 13.2363C8.24467 13.4051 8.28545 13.6062 8.28545 13.8396ZM10.5256 12.6752L11.0867 11.958L12.4072 10.5237H13.8584L11.9853 12.5698L13.9723 15.2402H12.4873L11.1289 13.3291L10.5762 13.7721V15.2402H9.28951V8.67586H10.5762V11.6037L10.5087 12.6752H10.5256ZM17.2714 10.4351C17.8283 10.4351 18.2642 10.653 18.5792 11.089C18.8942 11.5221 19.0517 12.117 19.0517 12.8735C19.0517 13.6526 18.8886 14.2559 18.5623 14.6834C18.2389 15.1109 17.7973 15.3246 17.2376 15.3246C16.6836 15.3246 16.249 15.1235 15.934 14.7213H15.8454L15.6303 15.2402H14.6473V8.67586H15.934V10.203C15.934 10.3971 15.9172 10.7079 15.8834 11.1354H15.934C16.235 10.6685 16.6808 10.4351 17.2714 10.4351ZM16.8579 11.4645C16.5401 11.4645 16.3081 11.5629 16.1619 11.7598C16.0156 11.9538 15.9397 12.2759 15.934 12.7259V12.8651C15.934 13.3713 16.0086 13.7341 16.1576 13.9535C16.3095 14.1729 16.5486 14.2826 16.8748 14.2826C17.1392 14.2826 17.3487 14.1616 17.5034 13.9198C17.6609 13.6751 17.7397 13.3207 17.7397 12.8566C17.7397 12.3926 17.6609 12.0452 17.5034 11.8146C17.3459 11.5812 17.1308 11.4645 16.8579 11.4645ZM19.9334 14.637C19.9334 14.4007 19.9967 14.2221 20.1233 14.1012C20.2498 13.9802 20.434 13.9198 20.6759 13.9198C20.9094 13.9198 21.0894 13.9816 21.2159 14.1054C21.3453 14.2291 21.41 14.4063 21.41 14.637C21.41 14.8591 21.3453 15.0349 21.2159 15.1643C21.0865 15.2909 20.9065 15.3541 20.6759 15.3541C20.4397 15.3541 20.2569 15.2923 20.1275 15.1685C19.9981 15.042 19.9334 14.8648 19.9334 14.637Z" fill="white"/>
</svg>
